<mxfile host="app.diagrams.net" modified="2023-06-17T17:01:29.317Z" agent="Mozilla/5.0 (Windows NT 10.0; Win64; x64) AppleWebKit/537.36 (KHTML, like Gecko) Chrome/114.0.0.0 Safari/537.36" version="21.4.0" etag="POYpUE40gWhgDh57RfG0" type="device">
  <diagram id="-Ii5E50bsJoAUWebW5jE" name="PÃ¡gina-1">
    <mxGraphModel dx="1151" dy="1386" grid="1" gridSize="10" guides="1" tooltips="1" connect="1" arrows="1" fold="1" page="0" pageScale="1" pageWidth="827" pageHeight="1169" background="none" math="0" shadow="0">
      <root>
        <mxCell id="0" />
        <mxCell id="1" parent="0" />
        <mxCell id="node0" value="&lt;p style=&quot;margin:0px;margin-top:4px;text-align:center;&quot;&gt;&lt;i&gt;&amp;lt;&amp;lt;interface&amp;gt;&amp;gt;&lt;/i&gt;&lt;br/&gt;&lt;b&gt;IAdyacencia&lt;/b&gt;&lt;/p&gt;&lt;hr size=&quot;1&quot;/&gt;&lt;p style=&quot;margin:0 0 0 4px;line-height:1.6;&quot;&gt; costo: double&lt;br/&gt; etiqueta: Comparable&lt;br/&gt; destino: TVertice&lt;/p&gt;" style="verticalAlign=top;align=left;overflow=fill;fontSize=14;fontFamily=Helvetica;html=1;rounded=0;shadow=0;comic=0;labelBackgroundColor=none;strokeWidth=1;" parent="1" vertex="1">
          <mxGeometry x="1571" y="-407" width="322" height="167" as="geometry" />
        </mxCell>
        <mxCell id="node5" value="&lt;p style=&quot;margin:0px;margin-top:4px;text-align:center;&quot;&gt;&lt;i&gt;&amp;lt;&amp;lt;interface&amp;gt;&amp;gt;&lt;/i&gt;&lt;br/&gt;&lt;b&gt;IArista&lt;/b&gt;&lt;/p&gt;&lt;hr size=&quot;1&quot;/&gt;&lt;p style=&quot;margin:0 0 0 4px;line-height:1.6;&quot;&gt; etiquetaDestino: Comparable&lt;br/&gt; costo: double&lt;br/&gt; etiquetaOrigen: Comparable&lt;/p&gt;" style="verticalAlign=top;align=left;overflow=fill;fontSize=14;fontFamily=Helvetica;html=1;rounded=0;shadow=0;comic=0;labelBackgroundColor=none;strokeWidth=1;" parent="1" vertex="1">
          <mxGeometry x="1033" y="-407" width="493" height="157" as="geometry" />
        </mxCell>
        <mxCell id="node15" value="&lt;p style=&quot;margin:0px;margin-top:4px;text-align:center;&quot;&gt;&lt;i&gt;&amp;lt;&amp;lt;interface&amp;gt;&amp;gt;&lt;/i&gt;&lt;br/&gt;&lt;b&gt;IGrafoDirigido&lt;/b&gt;&lt;/p&gt;&lt;hr size=&quot;1&quot;/&gt;&lt;p style=&quot;margin:0 0 0 4px;line-height:1.6;&quot;&gt;+ floyd(): Double[][]&lt;br/&gt;+ insertarArista(TArista): boolean&lt;br/&gt;+ eliminarArista(Comparable, Comparable): boolean&lt;br/&gt;+ eliminarVertice(Comparable): boolean&lt;br/&gt;+ insertarVertice(TVertice): boolean&lt;br/&gt;+ obtenerExcentricidad(Comparable): Comparable&lt;br/&gt;+ existeArista(Comparable, Comparable): boolean&lt;br/&gt;+ existeVertice(Comparable): boolean&lt;br/&gt;+ centroDelGrafo(): Comparable&lt;br/&gt;+ warshall(): boolean[][]&lt;/p&gt;&lt;hr size=&quot;1&quot;/&gt;&lt;p style=&quot;margin:0 0 0 4px;line-height:1.6;&quot;&gt; vertices: Map&amp;lt;Comparable, TVertice&amp;gt;&lt;/p&gt;" style="verticalAlign=top;align=left;overflow=fill;fontSize=14;fontFamily=Helvetica;html=1;rounded=0;shadow=0;comic=0;labelBackgroundColor=none;strokeWidth=1;" parent="1" vertex="1">
          <mxGeometry x="116" y="-407" width="355" height="304" as="geometry" />
        </mxCell>
        <mxCell id="node12" value="&lt;p style=&quot;margin:0px;margin-top:4px;text-align:center;&quot;&gt;&lt;i&gt;&amp;lt;&amp;lt;interface&amp;gt;&amp;gt;&lt;/i&gt;&lt;br/&gt;&lt;b&gt;IGrafoNoDirigido&lt;/b&gt;&lt;/p&gt;&lt;hr size=&quot;1&quot;/&gt;&lt;p style=&quot;margin:0 0 0 4px;line-height:1.6;&quot;&gt;+ bea(): Collection&amp;lt;TVertice&amp;gt;&lt;br/&gt;+ Prim(): TGrafoNoDirigido&lt;br/&gt;+ bea(Comparable): Collection&amp;lt;TVertice&amp;gt;&lt;br/&gt;+ Kruskal(): TGrafoNoDirigido&lt;/p&gt;" style="verticalAlign=top;align=left;overflow=fill;fontSize=14;fontFamily=Helvetica;html=1;rounded=0;shadow=0;comic=0;labelBackgroundColor=none;strokeWidth=1;" parent="1" vertex="1">
          <mxGeometry x="590" y="715" width="335" height="304" as="geometry" />
        </mxCell>
        <mxCell id="node6" value="&lt;p style=&quot;margin:0px;margin-top:4px;text-align:center;&quot;&gt;&lt;i&gt;&amp;lt;&amp;lt;interface&amp;gt;&amp;gt;&lt;/i&gt;&lt;br/&gt;&lt;b&gt;IVertice&lt;/b&gt;&lt;/p&gt;&lt;hr size=&quot;1&quot;/&gt;&lt;p style=&quot;margin:0 0 0 4px;line-height:1.6;&quot;&gt;+ eliminarAdyacencia(Comparable): boolean&lt;br/&gt;+ siguienteAdyacente(TVertice): TVertice&lt;br/&gt;+ insertarAdyacencia(Double, TVertice): boolean&lt;br/&gt;+ primerAdyacente(): TVertice&lt;br/&gt;+ buscarAdyacencia(TVertice): TAdyacencia&lt;br/&gt;+ buscarAdyacencia(Comparable): TAdyacencia&lt;br/&gt;+ obtenerCostoAdyacencia(TVertice): Double&lt;/p&gt;&lt;hr size=&quot;1&quot;/&gt;&lt;p style=&quot;margin:0 0 0 4px;line-height:1.6;&quot;&gt; adyacentes: LinkedList&amp;lt;TAdyacencia&amp;gt;&lt;/p&gt;" style="verticalAlign=top;align=left;overflow=fill;fontSize=14;fontFamily=Helvetica;html=1;rounded=0;shadow=0;comic=0;labelBackgroundColor=none;strokeWidth=1;" parent="1" vertex="1">
          <mxGeometry x="549" y="-407" width="439" height="288" as="geometry" />
        </mxCell>
        <mxCell id="node3" value="&lt;p style=&quot;margin:0px;margin-top:4px;text-align:center;&quot;&gt;&lt;b&gt;ManejadorArchivosGenerico&lt;/b&gt;&lt;/p&gt;&lt;hr size=&quot;1&quot;/&gt;&lt;p style=&quot;margin:0 0 0 4px;line-height:1.6;&quot;&gt;+ ManejadorArchivosGenerico(): &lt;/p&gt;&lt;hr size=&quot;1&quot;/&gt;&lt;p style=&quot;margin:0 0 0 4px;line-height:1.6;&quot;&gt;+ leerArchivo(String, boolean): String[]&lt;br/&gt;+ escribirArchivo(String, String[]): void&lt;br/&gt;+ leerArchivoRutaRelativa(String, boolean): String[]&lt;/p&gt;" style="verticalAlign=top;align=left;overflow=fill;fontSize=14;fontFamily=Helvetica;html=1;rounded=0;shadow=0;comic=0;labelBackgroundColor=none;strokeWidth=1;" parent="1" vertex="1">
          <mxGeometry x="1030" y="590" width="488" height="147" as="geometry" />
        </mxCell>
        <mxCell id="node11" value="&lt;p style=&quot;margin:0px;margin-top:4px;text-align:center;&quot;&gt;&lt;b&gt;TAdyacencia&lt;/b&gt;&lt;/p&gt;&lt;hr size=&quot;1&quot;/&gt;&lt;p style=&quot;margin:0 0 0 4px;line-height:1.6;&quot;&gt;+ TAdyacencia(double, TVertice): &lt;/p&gt;&lt;hr size=&quot;1&quot;/&gt;&lt;p style=&quot;margin:0 0 0 4px;line-height:1.6;&quot;&gt;- etiqueta: Comparable&lt;br/&gt;- costo: double&lt;br/&gt;- destino: TVertice&lt;/p&gt;&lt;hr size=&quot;1&quot;/&gt;&lt;p style=&quot;margin:0 0 0 4px;line-height:1.6;&quot;&gt; costo: double&lt;br/&gt; etiqueta: Comparable&lt;br/&gt; destino: TVertice&lt;/p&gt;" style="verticalAlign=top;align=left;overflow=fill;fontSize=14;fontFamily=Helvetica;html=1;rounded=0;shadow=0;comic=0;labelBackgroundColor=none;strokeWidth=1;" parent="1" vertex="1">
          <mxGeometry x="1566" y="-220" width="322" height="259" as="geometry" />
        </mxCell>
        <mxCell id="node8" value="&lt;p style=&quot;margin:0px;margin-top:4px;text-align:center;&quot;&gt;&lt;b&gt;TArista&lt;/b&gt;&lt;/p&gt;&lt;hr size=&quot;1&quot;/&gt;&lt;p style=&quot;margin:0 0 0 4px;line-height:1.6;&quot;&gt;+ TArista(Comparable, Comparable, double): &lt;/p&gt;&lt;hr size=&quot;1&quot;/&gt;&lt;p style=&quot;margin:0 0 0 4px;line-height:1.6;&quot;&gt;# etiquetaOrigen: Comparable&lt;br/&gt;# etiquetaDestino: Comparable&lt;br/&gt;# costo: double&lt;/p&gt;&lt;hr size=&quot;1&quot;/&gt;&lt;p style=&quot;margin:0 0 0 4px;line-height:1.6;&quot;&gt;+ aristaInversa(): TArista&lt;/p&gt;&lt;hr size=&quot;1&quot;/&gt;&lt;p style=&quot;margin:0 0 0 4px;line-height:1.6;&quot;&gt; etiquetaDestino: Comparable&lt;br/&gt; costo: double&lt;br/&gt; etiquetaOrigen: Comparable&lt;/p&gt;" style="verticalAlign=top;align=left;overflow=fill;fontSize=14;fontFamily=Helvetica;html=1;rounded=0;shadow=0;comic=0;labelBackgroundColor=none;strokeWidth=1;" parent="1" vertex="1">
          <mxGeometry x="1033" y="-220" width="493" height="280" as="geometry" />
        </mxCell>
        <mxCell id="node2" value="&lt;p style=&quot;margin:0px;margin-top:4px;text-align:center;&quot;&gt;&lt;b&gt;TAristas&lt;/b&gt;&lt;/p&gt;&lt;hr size=&quot;1&quot;/&gt;&lt;p style=&quot;margin:0 0 0 4px;line-height:1.6;&quot;&gt;+ TAristas(): &lt;/p&gt;&lt;hr size=&quot;1&quot;/&gt;&lt;p style=&quot;margin:0 0 0 4px;line-height:1.6;&quot;&gt;+ buscar(Comparable, Comparable): TArista&lt;br/&gt;+ imprimirEtiquetas(): String&lt;br/&gt;+ copiarTAristasOrdenado(): TAristas&lt;br/&gt;+ buscarMin(Collection&amp;lt;Comparable&amp;gt;, Collection&amp;lt;Comparable&amp;gt;): TArista&lt;br/&gt;~ insertarAmbosSentidos(Collection&amp;lt;TArista&amp;gt;): void&lt;/p&gt;" style="verticalAlign=top;align=left;overflow=fill;fontSize=14;fontFamily=Helvetica;html=1;rounded=0;shadow=0;comic=0;labelBackgroundColor=none;strokeWidth=1;" parent="1" vertex="1">
          <mxGeometry x="1033" y="100" width="493" height="250" as="geometry" />
        </mxCell>
        <mxCell id="node14" value="&lt;p style=&quot;margin:0px;margin-top:4px;text-align:center;&quot;&gt;&lt;b&gt;TCamino&lt;/b&gt;&lt;/p&gt;&lt;hr size=&quot;1&quot;/&gt;&lt;p style=&quot;margin:0 0 0 4px;line-height:1.6;&quot;&gt;+ TCamino(TVertice): &lt;/p&gt;&lt;hr size=&quot;1&quot;/&gt;&lt;p style=&quot;margin:0 0 0 4px;line-height:1.6;&quot;&gt;- otrosVertices: Collection&amp;lt;Comparable&amp;gt;&lt;br/&gt;- origen: TVertice&lt;br/&gt;- costoTotal: Double&lt;/p&gt;&lt;hr size=&quot;1&quot;/&gt;&lt;p style=&quot;margin:0 0 0 4px;line-height:1.6;&quot;&gt;+ agregarAdyacencia(TAdyacencia): boolean&lt;br/&gt;+ imprimirEtiquetasConsola(): void&lt;br/&gt;+ eliminarAdyacencia(TAdyacencia): boolean&lt;br/&gt;+ imprimirEtiquetas(): String&lt;br/&gt;+ imprimirDesdeClave(Comparable): String&lt;br/&gt;+ copiar(): TCamino&lt;br/&gt;+ buscarVertice(Comparable): boolean&lt;/p&gt;&lt;hr size=&quot;1&quot;/&gt;&lt;p style=&quot;margin:0 0 0 4px;line-height:1.6;&quot;&gt; origen: TVertice&lt;br/&gt; otrosVertices: Collection&amp;lt;Comparable&amp;gt;&lt;br/&gt; costoTotal: Double&lt;/p&gt;" style="verticalAlign=top;align=left;overflow=fill;fontSize=14;fontFamily=Helvetica;html=1;rounded=0;shadow=0;comic=0;labelBackgroundColor=none;strokeWidth=1;" parent="1" vertex="1">
          <mxGeometry x="1566" y="330" width="312" height="378" as="geometry" />
        </mxCell>
        <mxCell id="node10" value="&lt;p style=&quot;margin:0px;margin-top:4px;text-align:center;&quot;&gt;&lt;b&gt;TCaminos&lt;/b&gt;&lt;/p&gt;&lt;hr size=&quot;1&quot;/&gt;&lt;p style=&quot;margin:0 0 0 4px;line-height:1.6;&quot;&gt;+ TCaminos(): &lt;/p&gt;&lt;hr size=&quot;1&quot;/&gt;&lt;p style=&quot;margin:0 0 0 4px;line-height:1.6;&quot;&gt;- caminos: Collection&amp;lt;TCamino&amp;gt;&lt;/p&gt;&lt;hr size=&quot;1&quot;/&gt;&lt;p style=&quot;margin:0 0 0 4px;line-height:1.6;&quot;&gt;+ imprimirCaminos(): String&lt;br/&gt;+ imprimirCaminosConsola(): void&lt;/p&gt;&lt;hr size=&quot;1&quot;/&gt;&lt;p style=&quot;margin:0 0 0 4px;line-height:1.6;&quot;&gt; caminos: Collection&amp;lt;TCamino&amp;gt;&lt;/p&gt;" style="verticalAlign=top;align=left;overflow=fill;fontSize=14;fontFamily=Helvetica;html=1;rounded=0;shadow=0;comic=0;labelBackgroundColor=none;strokeWidth=1;" parent="1" vertex="1">
          <mxGeometry x="1571" y="70" width="312" height="240.5" as="geometry" />
        </mxCell>
        <mxCell id="node4" value="&lt;p style=&quot;margin:0px;margin-top:4px;text-align:center;&quot;&gt;&lt;b&gt;TGrafoDirigido&lt;/b&gt;&lt;/p&gt;&lt;hr size=&quot;1&quot;/&gt;&lt;p style=&quot;margin:0 0 0 4px;line-height:1.6;&quot;&gt;+ TGrafoDirigido(Collection&amp;lt;TVertice&amp;gt;, Collection&amp;lt;TArista&amp;gt;): &lt;/p&gt;&lt;hr size=&quot;1&quot;/&gt;&lt;p style=&quot;margin:0 0 0 4px;line-height:1.6;&quot;&gt;# vertices: Map&amp;lt;Comparable, TVertice&amp;gt;&lt;/p&gt;&lt;hr size=&quot;1&quot;/&gt;&lt;p style=&quot;margin:0 0 0 4px;line-height:1.6;&quot;&gt;+ obtenerExcentricidad(Comparable): Comparable&lt;br/&gt;+ tieneCiclo(Comparable): boolean&lt;br/&gt;+ eliminarArista(Comparable, Comparable): boolean&lt;br/&gt;+ insertarVertice(TVertice): boolean&lt;br/&gt;+ bea(): Collection&amp;lt;TVertice&amp;gt;&lt;br/&gt;+ floyd2(): Double[][]&lt;br/&gt;+ centroDelGrafo(): Comparable&lt;br/&gt;+ bpf(): Collection&amp;lt;TVertice&amp;gt;&lt;br/&gt;+ existeVertice(Comparable): boolean&lt;br/&gt;+ bea(Comparable): Collection&amp;lt;TVertice&amp;gt;&lt;br/&gt;+ todosLosCaminos(Comparable, Comparable): TCaminos&lt;br/&gt;+ desvisitarVertices(): void&lt;br/&gt;+ tieneCiclo(): boolean&lt;br/&gt;+ bpf(Comparable): Collection&amp;lt;TVertice&amp;gt;&lt;br/&gt;# buscarVertice(Comparable): TVertice&lt;br/&gt;+ floyd(): Double[][]&lt;br/&gt;+ insertarVertice(Comparable): boolean&lt;br/&gt;+ warshall(): boolean[][]&lt;br/&gt;+ tieneCiclo(TCamino): boolean&lt;br/&gt;+ bpf(TVertice): Collection&amp;lt;TVertice&amp;gt;&lt;br/&gt;+ existeArista(Comparable, Comparable): boolean&lt;br/&gt;+ centroDelGrafo2(): Comparable&lt;br/&gt;- obtenerExcentricidades(): Map&amp;lt;Comparable, Double&amp;gt;&lt;br/&gt;+ insertarArista(TArista): boolean&lt;br/&gt;+ eliminarVertice(Comparable): boolean&lt;/p&gt;&lt;hr size=&quot;1&quot;/&gt;&lt;p style=&quot;margin:0 0 0 4px;line-height:1.6;&quot;&gt; etiquetasOrdenado: Object[]&lt;br/&gt; vertices: Map&amp;lt;Comparable, TVertice&amp;gt;&lt;/p&gt;" style="verticalAlign=top;align=left;overflow=fill;fontSize=14;fontFamily=Helvetica;html=1;rounded=0;shadow=0;comic=0;labelBackgroundColor=none;strokeWidth=1;" parent="1" vertex="1">
          <mxGeometry x="100" y="-70" width="421" height="738" as="geometry" />
        </mxCell>
        <mxCell id="node1" value="&lt;p style=&quot;margin:0px;margin-top:4px;text-align:center;&quot;&gt;&lt;b&gt;TGrafoNoDirigido&lt;/b&gt;&lt;/p&gt;&lt;hr size=&quot;1&quot;/&gt;&lt;p style=&quot;margin:0 0 0 4px;line-height:1.6;&quot;&gt;+ TGrafoNoDirigido(Collection&amp;lt;TVertice&amp;gt;, Collection&amp;lt;TArista&amp;gt;): &lt;/p&gt;&lt;hr size=&quot;1&quot;/&gt;&lt;p style=&quot;margin:0 0 0 4px;line-height:1.6;&quot;&gt;# lasAristas: TAristas&lt;/p&gt;&lt;hr size=&quot;1&quot;/&gt;&lt;p style=&quot;margin:0 0 0 4px;line-height:1.6;&quot;&gt;+ insertarArista(TArista): boolean&lt;br/&gt;+ Kruskal(): TGrafoNoDirigido&lt;br/&gt;+ puntosArticulacion(Comparable): LinkedList&amp;lt;TVertice&amp;gt;&lt;br/&gt;+ esConexo(): boolean&lt;br/&gt;+ numBacon(Comparable): int&lt;br/&gt;- copiarEtisVertices(): LinkedList&amp;lt;Comparable&amp;gt;&lt;br/&gt;+ conectados(TVertice, TVertice): boolean&lt;br/&gt;+ bea(Comparable): Collection&amp;lt;TVertice&amp;gt;&lt;br/&gt;+ Prim(): TGrafoNoDirigido&lt;/p&gt;&lt;hr size=&quot;1&quot;/&gt;&lt;p style=&quot;margin:0 0 0 4px;line-height:1.6;&quot;&gt; costoTotal: double&lt;br/&gt; lasAristas: TAristas&lt;/p&gt;" style="verticalAlign=top;align=left;overflow=fill;fontSize=14;fontFamily=Helvetica;html=1;rounded=0;shadow=0;comic=0;labelBackgroundColor=none;strokeWidth=1;" parent="1" vertex="1">
          <mxGeometry x="82" y="690" width="439" height="354" as="geometry" />
        </mxCell>
        <mxCell id="node7" value="&lt;p style=&quot;margin:0px;margin-top:4px;text-align:center;&quot;&gt;&lt;b&gt;TVertice&lt;T&gt;&lt;/b&gt;&lt;/p&gt;&lt;hr size=&quot;1&quot;/&gt;&lt;p style=&quot;margin:0 0 0 4px;line-height:1.6;&quot;&gt;+ TVertice(Comparable): &lt;/p&gt;&lt;hr size=&quot;1&quot;/&gt;&lt;p style=&quot;margin:0 0 0 4px;line-height:1.6;&quot;&gt;- etiqueta: Comparable&lt;br/&gt;- datos: T&lt;br/&gt;- adyacentes: LinkedList&amp;lt;TAdyacencia&amp;gt;&lt;br/&gt;- visitado: boolean&lt;/p&gt;&lt;hr size=&quot;1&quot;/&gt;&lt;p style=&quot;margin:0 0 0 4px;line-height:1.6;&quot;&gt;+ tieneCiclo(TCamino): boolean&lt;br/&gt;+ eliminarAdyacencia(Comparable): boolean&lt;br/&gt;+ bea(Collection&amp;lt;TVertice&amp;gt;): void&lt;br/&gt;+ bpf(Collection&amp;lt;Comparable&amp;gt;): void&lt;br/&gt;+ conectadoCon(TVertice): boolean&lt;br/&gt;+ insertarAdyacencia(Double, TVertice): boolean&lt;br/&gt;+ primerAdyacente(): TVertice&lt;br/&gt;+ todosLosCaminos(Comparable, TCamino, TCaminos): TCaminos&lt;br/&gt;+ puntosArt(Collection&amp;lt;TVertice&amp;gt;, int[]): void&lt;br/&gt;+ siguienteAdyacente(TVertice): TVertice&lt;br/&gt;+ buscarAdyacencia(Comparable): TAdyacencia&lt;br/&gt;+ printAdyacencia(): void&lt;br/&gt;+ obtenerCostoAdyacencia(TVertice): Double&lt;br/&gt;+ numBacon(Comparable): int&lt;br/&gt;+ buscarAdyacencia(TVertice): TAdyacencia&lt;/p&gt;&lt;hr size=&quot;1&quot;/&gt;&lt;p style=&quot;margin:0 0 0 4px;line-height:1.6;&quot;&gt; datos: T&lt;br/&gt; visitado: boolean&lt;br/&gt; etiqueta: Comparable&lt;br/&gt; bacon: int&lt;br/&gt; adyacentes: LinkedList&amp;lt;TAdyacencia&amp;gt;&lt;/p&gt;" style="verticalAlign=top;align=left;overflow=fill;fontSize=14;fontFamily=Helvetica;html=1;rounded=0;shadow=0;comic=0;labelBackgroundColor=none;strokeWidth=1;" parent="1" vertex="1">
          <mxGeometry x="549" y="-69" width="439" height="679" as="geometry" />
        </mxCell>
        <mxCell id="node9" value="&lt;p style=&quot;margin:0px;margin-top:4px;text-align:center;&quot;&gt;&lt;b&gt;UtilGrafos&lt;/b&gt;&lt;/p&gt;&lt;hr size=&quot;1&quot;/&gt;&lt;p style=&quot;margin:0 0 0 4px;line-height:1.6;&quot;&gt;+ UtilGrafos(): &lt;/p&gt;&lt;hr size=&quot;1&quot;/&gt;&lt;p style=&quot;margin:0 0 0 4px;line-height:1.6;&quot;&gt;+ devolverCentrado(String, int): String&lt;br/&gt;+ imprimirMatrizMejorado(Comparable[][], Map&amp;lt;Comparable, TVertice&amp;gt;, String): void&lt;br/&gt;+ cargarGrafo(String, String, boolean, Class): T?&lt;br/&gt;+ imprimirMatrizCsv(Comparable[][], Map&amp;lt;Comparable, TVertice&amp;gt;): void&lt;br/&gt;+ imprimirMatriz(Comparable[][], Map&amp;lt;Comparable, TVertice&amp;gt;): void&lt;br/&gt;+ rellenar(String, int, char): String&lt;br/&gt;+ stringMasLargo(Comparable[]): int&lt;br/&gt;+ obtenerMatrizCostos(Map&amp;lt;Comparable, TVertice&amp;gt;): Double[][]&lt;/p&gt;" style="verticalAlign=top;align=left;overflow=fill;fontSize=14;fontFamily=Helvetica;html=1;rounded=0;shadow=0;comic=0;labelBackgroundColor=none;strokeWidth=1;" parent="1" vertex="1">
          <mxGeometry x="1390" y="770" width="488" height="256" as="geometry" />
        </mxCell>
        <mxCell id="node13" value="&lt;p style=&quot;margin:0px;margin-top:4px;text-align:center;&quot;&gt;&lt;b&gt;UtilParcial&lt;/b&gt;&lt;/p&gt;&lt;hr size=&quot;1&quot;/&gt;&lt;p style=&quot;margin:0 0 0 4px;line-height:1.6;&quot;&gt;+ UtilParcial(): &lt;/p&gt;&lt;hr size=&quot;1&quot;/&gt;&lt;p style=&quot;margin:0 0 0 4px;line-height:1.6;&quot;&gt;+ StringToLinkedList(String, String): LinkedList&amp;lt;String&amp;gt;&lt;br/&gt;+ StringArrayToLinkedList(String[]): LinkedList&amp;lt;String&amp;gt;&lt;/p&gt;" style="verticalAlign=top;align=left;overflow=fill;fontSize=14;fontFamily=Helvetica;html=1;rounded=0;shadow=0;comic=0;labelBackgroundColor=none;strokeWidth=1;" parent="1" vertex="1">
          <mxGeometry x="1033" y="410" width="488" height="147" as="geometry" />
        </mxCell>
        <mxCell id="edge2" value="" style="html=1;rounded=1;edgeStyle=orthogonalEdgeStyle;dashed=1;startArrow=none;endArrow=block;endSize=12;strokeColor=#008200;exitX=0.500;exitY=0.000;exitDx=0;exitDy=0;entryX=0.500;entryY=1.000;entryDx=0;entryDy=0;" parent="1" source="node11" target="node0" edge="1">
          <mxGeometry width="50" height="50" relative="1" as="geometry">
            <Array as="points" />
          </mxGeometry>
        </mxCell>
        <mxCell id="edge5" value="" style="html=1;rounded=1;edgeStyle=orthogonalEdgeStyle;dashed=1;startArrow=none;endArrow=block;endSize=12;strokeColor=#008200;exitX=0.500;exitY=0.000;exitDx=0;exitDy=0;entryX=0.500;entryY=1.000;entryDx=0;entryDy=0;" parent="1" source="node8" target="node5" edge="1">
          <mxGeometry width="50" height="50" relative="1" as="geometry">
            <Array as="points" />
          </mxGeometry>
        </mxCell>
        <mxCell id="edge1" value="" style="html=1;rounded=1;edgeStyle=orthogonalEdgeStyle;dashed=1;startArrow=none;endArrow=block;endSize=12;strokeColor=#008200;exitX=0.500;exitY=0.000;exitDx=0;exitDy=0;entryX=0.500;entryY=1.000;entryDx=0;entryDy=0;" parent="1" source="node4" target="node15" edge="1">
          <mxGeometry width="50" height="50" relative="1" as="geometry">
            <Array as="points" />
          </mxGeometry>
        </mxCell>
        <mxCell id="edge0" value="" style="html=1;rounded=1;edgeStyle=orthogonalEdgeStyle;dashed=1;startArrow=none;endArrow=block;endSize=12;strokeColor=#008200;exitX=1.007;exitY=0.318;exitDx=0;exitDy=0;entryX=0.5;entryY=0;entryDx=0;entryDy=0;exitPerimeter=0;" parent="1" source="node1" target="node12" edge="1">
          <mxGeometry width="50" height="50" relative="1" as="geometry">
            <Array as="points">
              <mxPoint x="560" y="803" />
              <mxPoint x="560" y="680" />
              <mxPoint x="758" y="680" />
            </Array>
          </mxGeometry>
        </mxCell>
        <mxCell id="edge4" value="" style="html=1;rounded=1;edgeStyle=orthogonalEdgeStyle;dashed=0;startArrow=none;endArrow=block;endSize=12;strokeColor=#000082;exitX=0.750;exitY=0.000;exitDx=0;exitDy=0;entryX=0.500;entryY=1.000;entryDx=0;entryDy=0;" parent="1" source="node1" target="node4" edge="1">
          <mxGeometry width="50" height="50" relative="1" as="geometry">
            <Array as="points">
              <mxPoint x="411" y="680" />
              <mxPoint x="311" y="680" />
            </Array>
          </mxGeometry>
        </mxCell>
        <mxCell id="edge3" value="" style="html=1;rounded=1;edgeStyle=orthogonalEdgeStyle;dashed=1;startArrow=none;endArrow=block;endSize=12;strokeColor=#008200;exitX=0.500;exitY=0.000;exitDx=0;exitDy=0;entryX=0.500;entryY=1.000;entryDx=0;entryDy=0;" parent="1" source="node7" target="node6" edge="1">
          <mxGeometry width="50" height="50" relative="1" as="geometry">
            <Array as="points" />
          </mxGeometry>
        </mxCell>
      </root>
    </mxGraphModel>
  </diagram>
</mxfile>
